<?xml version="1.0" encoding="UTF-8" standalone="no"?>
<!DOCTYPE svg PUBLIC "-//W3C//DTD SVG 1.1//EN"
 "http://www.w3.org/Graphics/SVG/1.1/DTD/svg11.dtd">
<!-- Generated by graphviz version 2.43.0 (0)
 -->
<!-- Title: G Pages: 1 -->
<svg width="726pt" height="840pt"
 viewBox="0.00 0.00 726.00 839.84" xmlns="http://www.w3.org/2000/svg" xmlns:xlink="http://www.w3.org/1999/xlink">
<g id="graph0" class="graph" transform="scale(1 1) rotate(0) translate(4 835.84)">
<title>G</title><style>.edge>path:hover{stroke-width:8}</style>
<polygon fill="white" stroke="transparent" points="-4,4 -4,-835.84 722,-835.84 722,4 -4,4"/>
<!-- fastapi -->
<g id="node1" class="node">
<title>fastapi</title><style>.edge>path:hover{stroke-width:8}</style>
<polygon fill="#b34c4c" stroke="black" points="54,-515.43 51,-519.43 30,-519.43 27,-515.43 0,-515.43 0,-479.43 54,-479.43 54,-515.43"/>
<text text-anchor="middle" x="27" y="-494.93" font-family="Helvetica,sans-Serif" font-size="10.00" fill="#ffffff">fastapi</text>
</g>
<!-- rag_entrypoints_rest -->
<g id="node18" class="node">
<title>rag_entrypoints_rest</title><style>.edge>path:hover{stroke-width:8}</style>
<ellipse fill="#335c99" stroke="black" cx="390" cy="-738.62" rx="53.07" ry="21.43"/>
<text text-anchor="middle" x="390" y="-741.62" font-family="Helvetica,sans-Serif" font-size="10.00" fill="#ffffff">entrypoints.</text>
<text text-anchor="middle" x="390" y="-730.62" font-family="Helvetica,sans-Serif" font-size="10.00" fill="#ffffff">rest</text>
</g>
<!-- fastapi&#45;&gt;rag_entrypoints_rest -->
<g id="edge1" class="edge">
<title>fastapi&#45;&gt;rag_entrypoints_rest</title><style>.edge>path:hover{stroke-width:8}</style>
<path fill="none" stroke="black" d="M31.06,-515.56C36.48,-535.17 47.84,-567.17 68,-587.43 143.59,-663.37 264.85,-705.41 335,-724.58"/>
<polygon fill="#b34c4c" stroke="black" points="334.41,-728.05 344.97,-727.25 336.21,-721.28 334.41,-728.05"/>
</g>
<!-- fastembed -->
<g id="node2" class="node">
<title>fastembed</title><style>.edge>path:hover{stroke-width:8}</style>
<polygon fill="#c08c40" stroke="black" points="639.5,-145 636.5,-149 615.5,-149 612.5,-145 570.5,-145 570.5,-109 639.5,-109 639.5,-145"/>
<text text-anchor="middle" x="605" y="-124.5" font-family="Helvetica,sans-Serif" font-size="10.00" fill="#000000">fastembed</text>
</g>
<!-- rag_components_search_qdrant_search -->
<g id="node13" class="node">
<title>rag_components_search_qdrant_search</title><style>.edge>path:hover{stroke-width:8}</style>
<ellipse fill="#3560a1" stroke="black" cx="589" cy="-310" rx="50.75" ry="18"/>
<text text-anchor="middle" x="589" y="-307.5" font-family="Helvetica,sans-Serif" font-size="10.00" fill="#ffffff">qdrant_search</text>
</g>
<!-- fastembed&#45;&gt;rag_components_search_qdrant_search -->
<g id="edge2" class="edge">
<title>fastembed&#45;&gt;rag_components_search_qdrant_search</title><style>.edge>path:hover{stroke-width:8}</style>
<path fill="none" stroke="black" d="M602.04,-145.24C600.93,-155.87 600.8,-169.6 605,-181"/>
</g>
<!-- openai -->
<g id="node3" class="node">
<title>openai</title><style>.edge>path:hover{stroke-width:8}</style>
<polygon fill="#aecc33" stroke="black" points="416,-145 413,-149 392,-149 389,-145 362,-145 362,-109 416,-109 416,-145"/>
<text text-anchor="middle" x="389" y="-124.5" font-family="Helvetica,sans-Serif" font-size="10.00" fill="#000000">openai</text>
</g>
<!-- rag_components_chat_openai_chat -->
<g id="node9" class="node">
<title>rag_components_chat_openai_chat</title><style>.edge>path:hover{stroke-width:8}</style>
<ellipse fill="#3d6eb8" stroke="black" cx="288" cy="-310" rx="44.98" ry="18"/>
<text text-anchor="middle" x="288" y="-307.5" font-family="Helvetica,sans-Serif" font-size="10.00" fill="#ffffff">openai_chat</text>
</g>
<!-- openai&#45;&gt;rag_components_chat_openai_chat -->
<g id="edge3" class="edge">
<title>openai&#45;&gt;rag_components_chat_openai_chat</title><style>.edge>path:hover{stroke-width:8}</style>
<path fill="none" stroke="black" d="M399.94,-145.17C414.45,-170.29 436.31,-218.08 419,-255"/>
<path fill="none" stroke="black" d="M419,-256C409.88,-271.49 368.28,-286.61 334.37,-296.71"/>
<polygon fill="#aecc33" stroke="black" points="333.22,-293.4 324.59,-299.55 335.17,-300.13 333.22,-293.4"/>
</g>
<!-- rag_components_embed_openai_embed -->
<g id="node11" class="node">
<title>rag_components_embed_openai_embed</title><style>.edge>path:hover{stroke-width:8}</style>
<ellipse fill="#4073c0" stroke="black" cx="419" cy="-310" rx="52.28" ry="18"/>
<text text-anchor="middle" x="419" y="-307.5" font-family="Helvetica,sans-Serif" font-size="10.00" fill="#ffffff">openai_embed</text>
</g>
<!-- openai&#45;&gt;rag_components_embed_openai_embed -->
<g id="edge4" class="edge">
<title>openai&#45;&gt;rag_components_embed_openai_embed</title><style>.edge>path:hover{stroke-width:8}</style>
<path fill="none" stroke="black" d="M419,-256C415.28,-263.94 414.33,-273.31 414.6,-281.94"/>
<polygon fill="#aecc33" stroke="black" points="411.12,-282.29 415.43,-291.97 418.09,-281.71 411.12,-282.29"/>
</g>
<!-- pydantic -->
<g id="node4" class="node">
<title>pydantic</title><style>.edge>path:hover{stroke-width:8}</style>
<polygon fill="#4ad926" stroke="black" points="473.5,-36 470.5,-40 449.5,-40 446.5,-36 414.5,-36 414.5,0 473.5,0 473.5,-36"/>
<text text-anchor="middle" x="444" y="-15.5" font-family="Helvetica,sans-Serif" font-size="10.00" fill="#000000">pydantic</text>
</g>
<!-- qdrant_client -->
<g id="node6" class="node">
<title>qdrant_client</title><style>.edge>path:hover{stroke-width:8}</style>
<polygon fill="#3bcece" stroke="black" points="552,-145 549,-149 528,-149 525,-145 472,-145 472,-109 552,-109 552,-145"/>
<text text-anchor="middle" x="512" y="-124.5" font-family="Helvetica,sans-Serif" font-size="10.00" fill="#000000">qdrant_client</text>
</g>
<!-- pydantic&#45;&gt;qdrant_client -->
<g id="edge5" class="edge">
<title>pydantic&#45;&gt;qdrant_client</title><style>.edge>path:hover{stroke-width:8}</style>
<path fill="none" stroke="black" d="M444,-73C441.96,-87.2 450.98,-98.2 463.07,-106.4"/>
<polygon fill="#4ad926" stroke="black" points="461.45,-109.51 471.83,-111.64 465.04,-103.51 461.45,-109.51"/>
</g>
<!-- rag_config -->
<g id="node14" class="node">
<title>rag_config</title><style>.edge>path:hover{stroke-width:8}</style>
<ellipse fill="#3560a1" stroke="black" cx="504" cy="-497.43" rx="27.16" ry="18"/>
<text text-anchor="middle" x="504" y="-494.93" font-family="Helvetica,sans-Serif" font-size="10.00" fill="#ffffff">config</text>
</g>
<!-- pydantic&#45;&gt;rag_config -->
<g id="edge6" class="edge">
<title>pydantic&#45;&gt;rag_config</title><style>.edge>path:hover{stroke-width:8}</style>
<path fill="none" stroke="black" d="M444,-73C429.96,-170.64 464.23,-194.63 480,-292 485.41,-325.42 486.4,-413.51 504,-442.43"/>
</g>
<!-- rag_entrypoints_rest_models -->
<g id="node19" class="node">
<title>rag_entrypoints_rest_models</title><style>.edge>path:hover{stroke-width:8}</style>
<ellipse fill="#4073c0" stroke="black" cx="351" cy="-652.42" rx="53.07" ry="28.98"/>
<text text-anchor="middle" x="351" y="-660.92" font-family="Helvetica,sans-Serif" font-size="10.00" fill="#ffffff">entrypoints.</text>
<text text-anchor="middle" x="351" y="-649.92" font-family="Helvetica,sans-Serif" font-size="10.00" fill="#ffffff">rest.</text>
<text text-anchor="middle" x="351" y="-638.92" font-family="Helvetica,sans-Serif" font-size="10.00" fill="#ffffff">models</text>
</g>
<!-- pydantic&#45;&gt;rag_entrypoints_rest_models -->
<g id="edge7" class="edge">
<title>pydantic&#45;&gt;rag_entrypoints_rest_models</title><style>.edge>path:hover{stroke-width:8}</style>
<path fill="none" stroke="black" d="M445.31,-36.28C445.77,-46.69 445.8,-60.17 444,-72"/>
<path fill="none" stroke="black" d="M444,-73C437.45,-116 389.29,-85.02 353,-109 193.69,-214.29 82,-251.46 82,-442.43 82,-442.43 82,-442.43 82,-498.43 82,-593.36 210.15,-630.13 289.55,-643.8"/>
<polygon fill="#4ad926" stroke="black" points="289.02,-647.26 299.45,-645.43 290.15,-640.35 289.02,-647.26"/>
</g>
<!-- pydantic_settings -->
<g id="node5" class="node">
<title>pydantic_settings</title><style>.edge>path:hover{stroke-width:8}</style>
<polygon fill="#53b67b" stroke="black" points="213.5,-403.21 210.5,-407.21 189.5,-407.21 186.5,-403.21 110.5,-403.21 110.5,-367.21 213.5,-367.21 213.5,-403.21"/>
<text text-anchor="middle" x="162" y="-382.71" font-family="Helvetica,sans-Serif" font-size="10.00" fill="#000000">pydantic_settings</text>
</g>
<!-- pydantic_settings&#45;&gt;rag_config -->
<g id="edge8" class="edge">
<title>pydantic_settings&#45;&gt;rag_config</title><style>.edge>path:hover{stroke-width:8}</style>
<path fill="none" stroke="black" d="M209.9,-403.28C213.97,-404.45 218.04,-405.52 222,-406.43 283.57,-420.58 471.15,-388.46 504,-442.43"/>
<path fill="none" stroke="black" d="M504,-443.43C508.63,-451.03 509.76,-460.45 509.37,-469.23"/>
<polygon fill="#53b67b" stroke="black" points="505.86,-469.14 508.29,-479.45 512.82,-469.88 505.86,-469.14"/>
</g>
<!-- qdrant_client&#45;&gt;rag_components_search_qdrant_search -->
<g id="edge9" class="edge">
<title>qdrant_client&#45;&gt;rag_components_search_qdrant_search</title><style>.edge>path:hover{stroke-width:8}</style>
<path fill="none" stroke="black" d="M552.04,-144.56C575.23,-155.24 600.68,-169.27 605,-181"/>
<path fill="none" stroke="black" d="M605,-182C617.21,-215.13 608.1,-256.07 599.43,-282.35"/>
<polygon fill="#3bcece" stroke="black" points="596.06,-281.4 596.05,-291.99 602.66,-283.71 596.06,-281.4"/>
</g>
<!-- rag_agent -->
<g id="node7" class="node">
<title>rag_agent</title><style>.edge>path:hover{stroke-width:8}</style>
<ellipse fill="#316cc4" stroke="black" cx="496" cy="-569.43" rx="27" ry="18"/>
<text text-anchor="middle" x="496" y="-566.93" font-family="Helvetica,sans-Serif" font-size="10.00" fill="#ffffff">agent</text>
</g>
<!-- rag_entrypoints_cli -->
<g id="node16" class="node">
<title>rag_entrypoints_cli</title><style>.edge>path:hover{stroke-width:8}</style>
<ellipse fill="#3865a8" stroke="black" cx="533" cy="-738.62" rx="53.07" ry="21.43"/>
<text text-anchor="middle" x="533" y="-741.62" font-family="Helvetica,sans-Serif" font-size="10.00" fill="#ffffff">entrypoints.</text>
<text text-anchor="middle" x="533" y="-730.62" font-family="Helvetica,sans-Serif" font-size="10.00" fill="#ffffff">cli</text>
</g>
<!-- rag_agent&#45;&gt;rag_entrypoints_cli -->
<g id="edge10" class="edge">
<title>rag_agent&#45;&gt;rag_entrypoints_cli</title><style>.edge>path:hover{stroke-width:8}</style>
<path fill="none" stroke="black" d="M472,-653.42C467.3,-676.42 483.13,-697.79 499.83,-713.24"/>
<polygon fill="#316cc4" stroke="black" points="497.66,-715.99 507.5,-719.91 502.25,-710.71 497.66,-715.99"/>
</g>
<!-- rag_agent&#45;&gt;rag_entrypoints_rest -->
<g id="edge11" class="edge">
<title>rag_agent&#45;&gt;rag_entrypoints_rest</title><style>.edge>path:hover{stroke-width:8}</style>
<path fill="none" stroke="black" d="M490.07,-587.27C484.59,-603.51 476.6,-628.86 472,-651.42"/>
<path fill="none" stroke="black" d="M472,-653.42C466.79,-678.96 446.36,-699.98 427.19,-714.63"/>
<polygon fill="#316cc4" stroke="black" points="425.14,-711.8 419.11,-720.51 429.25,-717.46 425.14,-711.8"/>
</g>
<!-- rag_components_chat -->
<g id="node8" class="node">
<title>rag_components_chat</title><style>.edge>path:hover{stroke-width:8}</style>
<ellipse fill="#4073c0" stroke="black" cx="288" cy="-385.21" rx="56.64" ry="21.43"/>
<text text-anchor="middle" x="288" y="-388.21" font-family="Helvetica,sans-Serif" font-size="10.00" fill="#ffffff">components.</text>
<text text-anchor="middle" x="288" y="-377.21" font-family="Helvetica,sans-Serif" font-size="10.00" fill="#ffffff">chat</text>
</g>
<!-- rag_components_chat&#45;&gt;rag_config -->
<g id="edge12" class="edge">
<title>rag_components_chat&#45;&gt;rag_config</title><style>.edge>path:hover{stroke-width:8}</style>
<path fill="none" stroke="black" d="M329.84,-399.68C337.51,-402.02 345.48,-404.36 353,-406.43 419.53,-424.68 468.13,-383.49 504,-442.43"/>
</g>
<!-- rag_components_chat_openai_chat&#45;&gt;rag_components_chat -->
<g id="edge13" class="edge">
<title>rag_components_chat_openai_chat&#45;&gt;rag_components_chat</title><style>.edge>path:hover{stroke-width:8}</style>
<path fill="none" stroke="black" d="M288,-328.35C288,-335.93 288,-345.04 288,-353.69"/>
<polygon fill="#3d6eb8" stroke="black" points="284.5,-353.87 288,-363.87 291.5,-353.87 284.5,-353.87"/>
</g>
<!-- rag_components_embed -->
<g id="node10" class="node">
<title>rag_components_embed</title><style>.edge>path:hover{stroke-width:8}</style>
<ellipse fill="#4073c0" stroke="black" cx="419" cy="-385.21" rx="56.64" ry="21.43"/>
<text text-anchor="middle" x="419" y="-388.21" font-family="Helvetica,sans-Serif" font-size="10.00" fill="#ffffff">components.</text>
<text text-anchor="middle" x="419" y="-377.21" font-family="Helvetica,sans-Serif" font-size="10.00" fill="#ffffff">embed</text>
</g>
<!-- rag_components_embed&#45;&gt;rag_config -->
<g id="edge14" class="edge">
<title>rag_components_embed&#45;&gt;rag_config</title><style>.edge>path:hover{stroke-width:8}</style>
<path fill="none" stroke="black" d="M455.7,-401.37C473.27,-410.58 492.87,-424.14 504,-442.43"/>
</g>
<!-- rag_components_embed_openai_embed&#45;&gt;rag_components_embed -->
<g id="edge15" class="edge">
<title>rag_components_embed_openai_embed&#45;&gt;rag_components_embed</title><style>.edge>path:hover{stroke-width:8}</style>
<path fill="none" stroke="black" d="M419,-328.35C419,-335.93 419,-345.04 419,-353.69"/>
<polygon fill="#4073c0" stroke="black" points="415.5,-353.87 419,-363.87 422.5,-353.87 415.5,-353.87"/>
</g>
<!-- rag_components_search -->
<g id="node12" class="node">
<title>rag_components_search</title><style>.edge>path:hover{stroke-width:8}</style>
<ellipse fill="#4073c0" stroke="black" cx="589" cy="-385.21" rx="56.64" ry="21.43"/>
<text text-anchor="middle" x="589" y="-388.21" font-family="Helvetica,sans-Serif" font-size="10.00" fill="#ffffff">components.</text>
<text text-anchor="middle" x="589" y="-377.21" font-family="Helvetica,sans-Serif" font-size="10.00" fill="#ffffff">search</text>
</g>
<!-- rag_components_search&#45;&gt;rag_config -->
<g id="edge16" class="edge">
<title>rag_components_search&#45;&gt;rag_config</title><style>.edge>path:hover{stroke-width:8}</style>
<path fill="none" stroke="black" d="M543.09,-397.84C516.81,-406.97 491.35,-421.65 504,-442.43"/>
</g>
<!-- rag_components_search_qdrant_search&#45;&gt;rag_components_search -->
<g id="edge17" class="edge">
<title>rag_components_search_qdrant_search&#45;&gt;rag_components_search</title><style>.edge>path:hover{stroke-width:8}</style>
<path fill="none" stroke="black" d="M589,-328.35C589,-335.93 589,-345.04 589,-353.69"/>
<polygon fill="#3560a1" stroke="black" points="585.5,-353.87 589,-363.87 592.5,-353.87 585.5,-353.87"/>
</g>
<!-- rag_config&#45;&gt;rag_agent -->
<g id="edge18" class="edge">
<title>rag_config&#45;&gt;rag_agent</title><style>.edge>path:hover{stroke-width:8}</style>
<path fill="none" stroke="black" d="M502.02,-515.73C501.14,-523.44 500.08,-532.71 499.1,-541.31"/>
<polygon fill="#3560a1" stroke="black" points="495.61,-540.99 497.95,-551.32 502.57,-541.78 495.61,-540.99"/>
</g>
<!-- rag_entrypoints -->
<g id="node15" class="node">
<title>rag_entrypoints</title><style>.edge>path:hover{stroke-width:8}</style>
<ellipse fill="#4971ac" stroke="black" cx="452" cy="-813.84" rx="42.27" ry="18"/>
<text text-anchor="middle" x="452" y="-811.34" font-family="Helvetica,sans-Serif" font-size="10.00" fill="#ffffff">entrypoints</text>
</g>
<!-- rag_entrypoints_cli&#45;&gt;rag_entrypoints -->
<g id="edge19" class="edge">
<title>rag_entrypoints_cli&#45;&gt;rag_entrypoints</title><style>.edge>path:hover{stroke-width:8}</style>
<path fill="none" stroke="black" d="M512.14,-758.48C501.32,-768.25 488.04,-780.26 476.71,-790.5"/>
<polygon fill="#3865a8" stroke="black" points="474.31,-787.95 469.24,-797.26 479,-793.15 474.31,-787.95"/>
</g>
<!-- rag_entrypoints_cli_tui -->
<g id="node17" class="node">
<title>rag_entrypoints_cli_tui</title><style>.edge>path:hover{stroke-width:8}</style>
<ellipse fill="#3865a8" stroke="black" cx="553" cy="-652.42" rx="53.07" ry="28.98"/>
<text text-anchor="middle" x="553" y="-660.92" font-family="Helvetica,sans-Serif" font-size="10.00" fill="#ffffff">entrypoints.</text>
<text text-anchor="middle" x="553" y="-649.92" font-family="Helvetica,sans-Serif" font-size="10.00" fill="#ffffff">cli.</text>
<text text-anchor="middle" x="553" y="-638.92" font-family="Helvetica,sans-Serif" font-size="10.00" fill="#ffffff">tui</text>
</g>
<!-- rag_entrypoints_cli_tui&#45;&gt;rag_entrypoints_cli -->
<g id="edge20" class="edge">
<title>rag_entrypoints_cli_tui&#45;&gt;rag_entrypoints_cli</title><style>.edge>path:hover{stroke-width:8}</style>
<path fill="none" stroke="black" d="M546.34,-681.46C544.35,-689.82 542.17,-699.03 540.15,-707.52"/>
<polygon fill="#3865a8" stroke="black" points="536.7,-706.89 537.8,-717.42 543.51,-708.5 536.7,-706.89"/>
</g>
<!-- rag_entrypoints_rest&#45;&gt;rag_entrypoints -->
<g id="edge21" class="edge">
<title>rag_entrypoints_rest&#45;&gt;rag_entrypoints</title><style>.edge>path:hover{stroke-width:8}</style>
<path fill="none" stroke="black" d="M406.29,-758.86C414.03,-767.99 423.35,-779.01 431.56,-788.7"/>
<polygon fill="#335c99" stroke="black" points="429,-791.09 438.13,-796.46 434.34,-786.56 429,-791.09"/>
</g>
<!-- rag_entrypoints_rest_models&#45;&gt;rag_entrypoints_rest -->
<g id="edge22" class="edge">
<title>rag_entrypoints_rest_models&#45;&gt;rag_entrypoints_rest</title><style>.edge>path:hover{stroke-width:8}</style>
<path fill="none" stroke="black" d="M363.77,-680.99C367.85,-689.8 372.37,-699.57 376.5,-708.48"/>
<polygon fill="#4073c0" stroke="black" points="373.41,-710.13 380.79,-717.73 379.76,-707.19 373.41,-710.13"/>
</g>
<!-- rich -->
<g id="node20" class="node">
<title>rich</title><style>.edge>path:hover{stroke-width:8}</style>
<polygon fill="blue" stroke="black" points="718,-403.21 715,-407.21 694,-407.21 691,-403.21 664,-403.21 664,-367.21 718,-367.21 718,-403.21"/>
<text text-anchor="middle" x="691" y="-382.71" font-family="Helvetica,sans-Serif" font-size="10.00" fill="white">rich</text>
</g>
<!-- rich&#45;&gt;rag_entrypoints_cli_tui -->
<g id="edge23" class="edge">
<title>rich&#45;&gt;rag_entrypoints_cli_tui</title><style>.edge>path:hover{stroke-width:8}</style>
<path fill="none" stroke="black" d="M681.95,-403.61C659.68,-446.4 601.89,-557.47 571.81,-615.27"/>
<polygon fill="blue" stroke="black" points="568.57,-613.92 567.06,-624.41 574.78,-617.15 568.57,-613.92"/>
</g>
<!-- typer -->
<g id="node21" class="node">
<title>typer</title><style>.edge>path:hover{stroke-width:8}</style>
<polygon fill="#a640c0" stroke="black" points="717,-515.43 714,-519.43 693,-519.43 690,-515.43 663,-515.43 663,-479.43 717,-479.43 717,-515.43"/>
<text text-anchor="middle" x="690" y="-494.93" font-family="Helvetica,sans-Serif" font-size="10.00" fill="#ffffff">typer</text>
</g>
<!-- typer&#45;&gt;rag_entrypoints_cli -->
<g id="edge24" class="edge">
<title>typer&#45;&gt;rag_entrypoints_cli</title><style>.edge>path:hover{stroke-width:8}</style>
<path fill="none" stroke="black" d="M686.48,-515.51C678.67,-550.01 657.17,-629.19 615,-681.41 603.86,-695.2 588.47,-706.97 574.02,-716.12"/>
<polygon fill="#a640c0" stroke="black" points="571.93,-713.3 565.19,-721.48 575.56,-719.28 571.93,-713.3"/>
</g>
<!-- uvicorn -->
<g id="node22" class="node">
<title>uvicorn</title><style>.edge>path:hover{stroke-width:8}</style>
<polygon fill="#c0408c" stroke="black" points="459,-515.43 456,-519.43 435,-519.43 432,-515.43 405,-515.43 405,-479.43 459,-479.43 459,-515.43"/>
<text text-anchor="middle" x="432" y="-494.93" font-family="Helvetica,sans-Serif" font-size="10.00" fill="#ffffff">uvicorn</text>
</g>
<!-- uvicorn&#45;&gt;rag_entrypoints_rest -->
<g id="edge25" class="edge">
<title>uvicorn&#45;&gt;rag_entrypoints_rest</title><style>.edge>path:hover{stroke-width:8}</style>
<path fill="none" stroke="black" d="M431.84,-515.61C431.17,-548.36 427.97,-621.78 413,-681.41 410.77,-690.3 407.4,-699.64 403.92,-708.1"/>
<polygon fill="#c0408c" stroke="black" points="400.6,-706.97 399.85,-717.54 407.02,-709.74 400.6,-706.97"/>
</g>
</g>
</svg>
