<?xml version="1.0" encoding="UTF-8" standalone="no"?>
<!DOCTYPE svg PUBLIC "-//W3C//DTD SVG 1.1//EN"
 "http://www.w3.org/Graphics/SVG/1.1/DTD/svg11.dtd">
<!-- Generated by graphviz version 2.43.0 (0)
 -->
<!-- Title: G Pages: 1 -->
<svg width="551pt" height="840pt"
 viewBox="0.00 0.00 551.00 839.84" xmlns="http://www.w3.org/2000/svg" xmlns:xlink="http://www.w3.org/1999/xlink">
<g id="graph0" class="graph" transform="scale(1 1) rotate(0) translate(4 835.84)">
<title>G</title><style>.edge>path:hover{stroke-width:8}</style>
<polygon fill="white" stroke="transparent" points="-4,4 -4,-835.84 547,-835.84 547,4 -4,4"/>
<!-- fastapi -->
<g id="node1" class="node">
<title>fastapi</title><style>.edge>path:hover{stroke-width:8}</style>
<polygon fill="#b34c4c" stroke="black" points="191,-515.43 188,-519.43 167,-519.43 164,-515.43 137,-515.43 137,-479.43 191,-479.43 191,-515.43"/>
<text text-anchor="middle" x="164" y="-494.93" font-family="Helvetica,sans-Serif" font-size="10.00" fill="#ffffff">fastapi</text>
</g>
<!-- rag_entrypoints_rest -->
<g id="node16" class="node">
<title>rag_entrypoints_rest</title><style>.edge>path:hover{stroke-width:8}</style>
<ellipse fill="#335c99" stroke="black" cx="236" cy="-738.62" rx="53.07" ry="21.43"/>
<text text-anchor="middle" x="236" y="-741.62" font-family="Helvetica,sans-Serif" font-size="10.00" fill="#ffffff">entrypoints.</text>
<text text-anchor="middle" x="236" y="-730.62" font-family="Helvetica,sans-Serif" font-size="10.00" fill="#ffffff">rest</text>
</g>
<!-- fastapi&#45;&gt;rag_entrypoints_rest -->
<g id="edge1" class="edge">
<title>fastapi&#45;&gt;rag_entrypoints_rest</title><style>.edge>path:hover{stroke-width:8}</style>
<path fill="none" stroke="black" d="M191.12,-513.63C209.08,-525.7 230.35,-544.5 236,-568.43"/>
<path fill="none" stroke="black" d="M236,-570.43C247.01,-617.08 243.82,-673.11 240.16,-707.01"/>
<polygon fill="#b34c4c" stroke="black" points="236.66,-706.86 238.98,-717.2 243.61,-707.67 236.66,-706.86"/>
</g>
<!-- fastembed -->
<g id="node2" class="node">
<title>fastembed</title><style>.edge>path:hover{stroke-width:8}</style>
<polygon fill="#c08c40" stroke="black" points="326.5,-145 323.5,-149 302.5,-149 299.5,-145 257.5,-145 257.5,-109 326.5,-109 326.5,-145"/>
<text text-anchor="middle" x="292" y="-124.5" font-family="Helvetica,sans-Serif" font-size="10.00" fill="#000000">fastembed</text>
</g>
<!-- rag_components_search_qdrant_search -->
<g id="node11" class="node">
<title>rag_components_search_qdrant_search</title><style>.edge>path:hover{stroke-width:8}</style>
<ellipse fill="#335c99" stroke="black" cx="376" cy="-310" rx="50.75" ry="18"/>
<text text-anchor="middle" x="376" y="-307.5" font-family="Helvetica,sans-Serif" font-size="10.00" fill="#ffffff">qdrant_search</text>
</g>
<!-- fastembed&#45;&gt;rag_components_search_qdrant_search -->
<g id="edge2" class="edge">
<title>fastembed&#45;&gt;rag_components_search_qdrant_search</title><style>.edge>path:hover{stroke-width:8}</style>
<path fill="none" stroke="black" d="M326.66,-142.12C351.12,-153.03 380.34,-168.36 385,-181"/>
<path fill="none" stroke="black" d="M385,-182C397.15,-214.96 390.75,-255.93 384.14,-282.27"/>
<polygon fill="#c08c40" stroke="black" points="380.76,-281.37 381.55,-291.94 387.52,-283.19 380.76,-281.37"/>
</g>
<!-- openai -->
<g id="node3" class="node">
<title>openai</title><style>.edge>path:hover{stroke-width:8}</style>
<polygon fill="#a6c040" stroke="black" points="201,-145 198,-149 177,-149 174,-145 147,-145 147,-109 201,-109 201,-145"/>
<text text-anchor="middle" x="174" y="-124.5" font-family="Helvetica,sans-Serif" font-size="10.00" fill="#000000">openai</text>
</g>
<!-- rag_components_inference_openai_inference -->
<g id="node9" class="node">
<title>rag_components_inference_openai_inference</title><style>.edge>path:hover{stroke-width:8}</style>
<ellipse fill="#3d6eb8" stroke="black" cx="204" cy="-310" rx="59.41" ry="18"/>
<text text-anchor="middle" x="204" y="-307.5" font-family="Helvetica,sans-Serif" font-size="10.00" fill="#ffffff">openai_inference</text>
</g>
<!-- openai&#45;&gt;rag_components_inference_openai_inference -->
<g id="edge3" class="edge">
<title>openai&#45;&gt;rag_components_inference_openai_inference</title><style>.edge>path:hover{stroke-width:8}</style>
<path fill="none" stroke="black" d="M176.82,-145.03C182.03,-176.43 193.17,-243.69 199.46,-281.58"/>
<polygon fill="#a6c040" stroke="black" points="196.08,-282.59 201.16,-291.89 202.98,-281.45 196.08,-282.59"/>
</g>
<!-- pydantic -->
<g id="node4" class="node">
<title>pydantic</title><style>.edge>path:hover{stroke-width:8}</style>
<polygon fill="#4ad926" stroke="black" points="258.5,-36 255.5,-40 234.5,-40 231.5,-36 199.5,-36 199.5,0 258.5,0 258.5,-36"/>
<text text-anchor="middle" x="229" y="-15.5" font-family="Helvetica,sans-Serif" font-size="10.00" fill="#000000">pydantic</text>
</g>
<!-- qdrant_client -->
<g id="node6" class="node">
<title>qdrant_client</title><style>.edge>path:hover{stroke-width:8}</style>
<polygon fill="#3bcece" stroke="black" points="425,-145 422,-149 401,-149 398,-145 345,-145 345,-109 425,-109 425,-145"/>
<text text-anchor="middle" x="385" y="-124.5" font-family="Helvetica,sans-Serif" font-size="10.00" fill="#000000">qdrant_client</text>
</g>
<!-- pydantic&#45;&gt;qdrant_client -->
<g id="edge4" class="edge">
<title>pydantic&#45;&gt;qdrant_client</title><style>.edge>path:hover{stroke-width:8}</style>
<path fill="none" stroke="black" d="M229,-73C235.38,-122.34 287.89,-92.99 335,-109 335.1,-109.03 335.2,-109.07 335.3,-109.1"/>
<polygon fill="#4ad926" stroke="black" points="334.29,-112.45 344.88,-112.36 336.54,-105.83 334.29,-112.45"/>
</g>
<!-- rag_config -->
<g id="node12" class="node">
<title>rag_config</title><style>.edge>path:hover{stroke-width:8}</style>
<ellipse fill="#3865a8" stroke="black" cx="308" cy="-497.43" rx="27.16" ry="18"/>
<text text-anchor="middle" x="308" y="-494.93" font-family="Helvetica,sans-Serif" font-size="10.00" fill="#ffffff">config</text>
</g>
<!-- pydantic&#45;&gt;rag_config -->
<g id="edge5" class="edge">
<title>pydantic&#45;&gt;rag_config</title><style>.edge>path:hover{stroke-width:8}</style>
<path fill="none" stroke="black" d="M229,-73C241.72,-171.37 256.22,-194.07 272,-292 282.72,-358.53 257.43,-383.99 291,-442.43"/>
</g>
<!-- rag_entrypoints_rest_models -->
<g id="node17" class="node">
<title>rag_entrypoints_rest_models</title><style>.edge>path:hover{stroke-width:8}</style>
<ellipse fill="#4073c0" stroke="black" cx="155" cy="-652.42" rx="53.07" ry="28.98"/>
<text text-anchor="middle" x="155" y="-660.92" font-family="Helvetica,sans-Serif" font-size="10.00" fill="#ffffff">entrypoints.</text>
<text text-anchor="middle" x="155" y="-649.92" font-family="Helvetica,sans-Serif" font-size="10.00" fill="#ffffff">rest.</text>
<text text-anchor="middle" x="155" y="-638.92" font-family="Helvetica,sans-Serif" font-size="10.00" fill="#ffffff">models</text>
</g>
<!-- pydantic&#45;&gt;rag_entrypoints_rest_models -->
<g id="edge6" class="edge">
<title>pydantic&#45;&gt;rag_entrypoints_rest_models</title><style>.edge>path:hover{stroke-width:8}</style>
<path fill="none" stroke="black" d="M227.67,-36.29C227.19,-46.7 227.17,-60.18 229,-72"/>
<path fill="none" stroke="black" d="M229,-73C235.67,-115.98 169.66,-79.18 138,-109 21.25,-218.96 0,-282.05 0,-442.43 0,-442.43 0,-442.43 0,-498.43 0,-558.86 60.43,-603.47 105.82,-628.46"/>
<polygon fill="#4ad926" stroke="black" points="104.21,-631.57 114.68,-633.19 107.51,-625.39 104.21,-631.57"/>
</g>
<!-- pydantic_settings -->
<g id="node5" class="node">
<title>pydantic_settings</title><style>.edge>path:hover{stroke-width:8}</style>
<polygon fill="#53b67b" stroke="black" points="131.5,-403.21 128.5,-407.21 107.5,-407.21 104.5,-403.21 28.5,-403.21 28.5,-367.21 131.5,-367.21 131.5,-403.21"/>
<text text-anchor="middle" x="80" y="-382.71" font-family="Helvetica,sans-Serif" font-size="10.00" fill="#000000">pydantic_settings</text>
</g>
<!-- pydantic_settings&#45;&gt;rag_config -->
<g id="edge7" class="edge">
<title>pydantic_settings&#45;&gt;rag_config</title><style>.edge>path:hover{stroke-width:8}</style>
<path fill="none" stroke="black" d="M129.33,-403.23C132.93,-404.35 136.51,-405.43 140,-406.43 206.31,-425.46 256.63,-382.6 291,-442.43"/>
<path fill="none" stroke="black" d="M291,-443.43C295.64,-451.5 299.19,-461 301.82,-469.71"/>
<polygon fill="#53b67b" stroke="black" points="298.47,-470.72 304.49,-479.44 305.22,-468.87 298.47,-470.72"/>
</g>
<!-- qdrant_client&#45;&gt;rag_components_search_qdrant_search -->
<g id="edge8" class="edge">
<title>qdrant_client&#45;&gt;rag_components_search_qdrant_search</title><style>.edge>path:hover{stroke-width:8}</style>
<path fill="none" stroke="black" d="M382.04,-145.24C380.93,-155.87 380.8,-169.6 385,-181"/>
</g>
<!-- rag_agent -->
<g id="node7" class="node">
<title>rag_agent</title><style>.edge>path:hover{stroke-width:8}</style>
<ellipse fill="#316cc4" stroke="black" cx="304" cy="-569.43" rx="27" ry="18"/>
<text text-anchor="middle" x="304" y="-566.93" font-family="Helvetica,sans-Serif" font-size="10.00" fill="#ffffff">agent</text>
</g>
<!-- rag_entrypoints_cli -->
<g id="node14" class="node">
<title>rag_entrypoints_cli</title><style>.edge>path:hover{stroke-width:8}</style>
<ellipse fill="#3865a8" stroke="black" cx="367" cy="-738.62" rx="53.07" ry="21.43"/>
<text text-anchor="middle" x="367" y="-741.62" font-family="Helvetica,sans-Serif" font-size="10.00" fill="#ffffff">entrypoints.</text>
<text text-anchor="middle" x="367" y="-730.62" font-family="Helvetica,sans-Serif" font-size="10.00" fill="#ffffff">cli</text>
</g>
<!-- rag_agent&#45;&gt;rag_entrypoints_cli -->
<g id="edge9" class="edge">
<title>rag_agent&#45;&gt;rag_entrypoints_cli</title><style>.edge>path:hover{stroke-width:8}</style>
<path fill="none" stroke="black" d="M300,-653.42C299.63,-677.39 316.47,-698.49 333.36,-713.57"/>
<polygon fill="#316cc4" stroke="black" points="331.16,-716.3 341.06,-720.07 335.67,-710.95 331.16,-716.3"/>
</g>
<!-- rag_agent&#45;&gt;rag_entrypoints_rest -->
<g id="edge10" class="edge">
<title>rag_agent&#45;&gt;rag_entrypoints_rest</title><style>.edge>path:hover{stroke-width:8}</style>
<path fill="none" stroke="black" d="M302.82,-587.48C301.77,-603.86 300.34,-629.32 300,-651.42"/>
<path fill="none" stroke="black" d="M300,-653.42C299.64,-676.61 284.05,-697.42 268.35,-712.55"/>
<polygon fill="#316cc4" stroke="black" points="265.75,-710.19 260.7,-719.5 270.46,-715.37 265.75,-710.19"/>
</g>
<!-- rag_components_inference -->
<g id="node8" class="node">
<title>rag_components_inference</title><style>.edge>path:hover{stroke-width:8}</style>
<ellipse fill="#4073c0" stroke="black" cx="206" cy="-385.21" rx="56.64" ry="21.43"/>
<text text-anchor="middle" x="206" y="-388.21" font-family="Helvetica,sans-Serif" font-size="10.00" fill="#ffffff">components.</text>
<text text-anchor="middle" x="206" y="-377.21" font-family="Helvetica,sans-Serif" font-size="10.00" fill="#ffffff">inference</text>
</g>
<!-- rag_components_inference&#45;&gt;rag_config -->
<g id="edge11" class="edge">
<title>rag_components_inference&#45;&gt;rag_config</title><style>.edge>path:hover{stroke-width:8}</style>
<path fill="none" stroke="black" d="M243.53,-401.36C261.09,-410.52 280.42,-424.02 291,-442.43"/>
</g>
<!-- rag_components_inference_openai_inference&#45;&gt;rag_components_inference -->
<g id="edge12" class="edge">
<title>rag_components_inference_openai_inference&#45;&gt;rag_components_inference</title><style>.edge>path:hover{stroke-width:8}</style>
<path fill="none" stroke="black" d="M204.47,-328.35C204.68,-335.93 204.93,-345.04 205.17,-353.69"/>
<polygon fill="#3d6eb8" stroke="black" points="201.67,-353.97 205.44,-363.87 208.67,-353.78 201.67,-353.97"/>
</g>
<!-- rag_components_search -->
<g id="node10" class="node">
<title>rag_components_search</title><style>.edge>path:hover{stroke-width:8}</style>
<ellipse fill="#4073c0" stroke="black" cx="376" cy="-385.21" rx="56.64" ry="21.43"/>
<text text-anchor="middle" x="376" y="-388.21" font-family="Helvetica,sans-Serif" font-size="10.00" fill="#ffffff">components.</text>
<text text-anchor="middle" x="376" y="-377.21" font-family="Helvetica,sans-Serif" font-size="10.00" fill="#ffffff">search</text>
</g>
<!-- rag_components_search&#45;&gt;rag_config -->
<g id="edge13" class="edge">
<title>rag_components_search&#45;&gt;rag_config</title><style>.edge>path:hover{stroke-width:8}</style>
<path fill="none" stroke="black" d="M330.15,-397.74C304.12,-406.79 278.93,-421.41 291,-442.43"/>
</g>
<!-- rag_components_search_qdrant_search&#45;&gt;rag_components_search -->
<g id="edge14" class="edge">
<title>rag_components_search_qdrant_search&#45;&gt;rag_components_search</title><style>.edge>path:hover{stroke-width:8}</style>
<path fill="none" stroke="black" d="M376,-328.35C376,-335.93 376,-345.04 376,-353.69"/>
<polygon fill="#335c99" stroke="black" points="372.5,-353.87 376,-363.87 379.5,-353.87 372.5,-353.87"/>
</g>
<!-- rag_config&#45;&gt;rag_agent -->
<g id="edge15" class="edge">
<title>rag_config&#45;&gt;rag_agent</title><style>.edge>path:hover{stroke-width:8}</style>
<path fill="none" stroke="black" d="M307.01,-515.73C306.57,-523.44 306.04,-532.71 305.55,-541.31"/>
<polygon fill="#3865a8" stroke="black" points="302.05,-541.14 304.98,-551.32 309.04,-541.54 302.05,-541.14"/>
</g>
<!-- rag_entrypoints -->
<g id="node13" class="node">
<title>rag_entrypoints</title><style>.edge>path:hover{stroke-width:8}</style>
<ellipse fill="#4971ac" stroke="black" cx="298" cy="-813.84" rx="42.27" ry="18"/>
<text text-anchor="middle" x="298" y="-811.34" font-family="Helvetica,sans-Serif" font-size="10.00" fill="#ffffff">entrypoints</text>
</g>
<!-- rag_entrypoints_cli&#45;&gt;rag_entrypoints -->
<g id="edge16" class="edge">
<title>rag_entrypoints_cli&#45;&gt;rag_entrypoints</title><style>.edge>path:hover{stroke-width:8}</style>
<path fill="none" stroke="black" d="M348.87,-758.86C340.05,-768.22 329.37,-779.55 320.08,-789.41"/>
<polygon fill="#3865a8" stroke="black" points="317.29,-787.26 312.98,-796.94 322.39,-792.06 317.29,-787.26"/>
</g>
<!-- rag_entrypoints_cli_tui -->
<g id="node15" class="node">
<title>rag_entrypoints_cli_tui</title><style>.edge>path:hover{stroke-width:8}</style>
<ellipse fill="#3560a1" stroke="black" cx="381" cy="-652.42" rx="53.07" ry="28.98"/>
<text text-anchor="middle" x="381" y="-660.92" font-family="Helvetica,sans-Serif" font-size="10.00" fill="#ffffff">entrypoints.</text>
<text text-anchor="middle" x="381" y="-649.92" font-family="Helvetica,sans-Serif" font-size="10.00" fill="#ffffff">cli.</text>
<text text-anchor="middle" x="381" y="-638.92" font-family="Helvetica,sans-Serif" font-size="10.00" fill="#ffffff">tui</text>
</g>
<!-- rag_entrypoints_cli_tui&#45;&gt;rag_entrypoints_cli -->
<g id="edge17" class="edge">
<title>rag_entrypoints_cli_tui&#45;&gt;rag_entrypoints_cli</title><style>.edge>path:hover{stroke-width:8}</style>
<path fill="none" stroke="black" d="M376.34,-681.46C374.95,-689.82 373.42,-699.03 372,-707.52"/>
<polygon fill="#3560a1" stroke="black" points="368.55,-706.99 370.36,-717.42 375.45,-708.13 368.55,-706.99"/>
</g>
<!-- rag_entrypoints_rest&#45;&gt;rag_entrypoints -->
<g id="edge18" class="edge">
<title>rag_entrypoints_rest&#45;&gt;rag_entrypoints</title><style>.edge>path:hover{stroke-width:8}</style>
<path fill="none" stroke="black" d="M252.29,-758.86C260.03,-767.99 269.35,-779.01 277.56,-788.7"/>
<polygon fill="#335c99" stroke="black" points="275,-791.09 284.13,-796.46 280.34,-786.56 275,-791.09"/>
</g>
<!-- rag_entrypoints_rest_models&#45;&gt;rag_entrypoints_rest -->
<g id="edge19" class="edge">
<title>rag_entrypoints_rest_models&#45;&gt;rag_entrypoints_rest</title><style>.edge>path:hover{stroke-width:8}</style>
<path fill="none" stroke="black" d="M179.3,-678.68C189.2,-688.97 200.65,-700.87 210.65,-711.27"/>
<polygon fill="#4073c0" stroke="black" points="208.18,-713.75 217.64,-718.53 213.23,-708.9 208.18,-713.75"/>
</g>
<!-- rich -->
<g id="node18" class="node">
<title>rich</title><style>.edge>path:hover{stroke-width:8}</style>
<polygon fill="blue" stroke="black" points="505,-403.21 502,-407.21 481,-407.21 478,-403.21 451,-403.21 451,-367.21 505,-367.21 505,-403.21"/>
<text text-anchor="middle" x="478" y="-382.71" font-family="Helvetica,sans-Serif" font-size="10.00" fill="white">rich</text>
</g>
<!-- rich&#45;&gt;rag_entrypoints_cli_tui -->
<g id="edge20" class="edge">
<title>rich&#45;&gt;rag_entrypoints_cli_tui</title><style>.edge>path:hover{stroke-width:8}</style>
<path fill="none" stroke="black" d="M471.64,-403.61C456.1,-446.1 415.94,-555.88 394.68,-614.02"/>
<polygon fill="blue" stroke="black" points="391.33,-612.97 391.19,-623.57 397.91,-615.38 391.33,-612.97"/>
</g>
<!-- typer -->
<g id="node19" class="node">
<title>typer</title><style>.edge>path:hover{stroke-width:8}</style>
<polygon fill="#a640c0" stroke="black" points="543,-515.43 540,-519.43 519,-519.43 516,-515.43 489,-515.43 489,-479.43 543,-479.43 543,-515.43"/>
<text text-anchor="middle" x="516" y="-494.93" font-family="Helvetica,sans-Serif" font-size="10.00" fill="#ffffff">typer</text>
</g>
<!-- typer&#45;&gt;rag_entrypoints_cli -->
<g id="edge21" class="edge">
<title>typer&#45;&gt;rag_entrypoints_cli</title><style>.edge>path:hover{stroke-width:8}</style>
<path fill="none" stroke="black" d="M512.48,-515.65C504.76,-550.07 483.72,-628.59 443,-681.41 432.81,-694.63 418.72,-706.22 405.43,-715.39"/>
<polygon fill="#a640c0" stroke="black" points="403.28,-712.62 396.87,-721.05 407.14,-718.45 403.28,-712.62"/>
</g>
<!-- uvicorn -->
<g id="node20" class="node">
<title>uvicorn</title><style>.edge>path:hover{stroke-width:8}</style>
<polygon fill="#c0408c" stroke="black" points="263,-515.43 260,-519.43 239,-519.43 236,-515.43 209,-515.43 209,-479.43 263,-479.43 263,-515.43"/>
<text text-anchor="middle" x="236" y="-494.93" font-family="Helvetica,sans-Serif" font-size="10.00" fill="#ffffff">uvicorn</text>
</g>
<!-- uvicorn&#45;&gt;rag_entrypoints_rest -->
<g id="edge22" class="edge">
<title>uvicorn&#45;&gt;rag_entrypoints_rest</title><style>.edge>path:hover{stroke-width:8}</style>
<path fill="none" stroke="black" d="M233.82,-515.65C232.52,-529.98 231.84,-550.8 236,-568.43"/>
</g>
</g>
</svg>
